<?xml version="1.0" encoding="UTF-8"?>
<svg id="_图层_1" data-name="图层 1" xmlns="http://www.w3.org/2000/svg" viewBox="0 0 1000 1000">
  <defs>
    <style>
      .cls-1 {
        fill: #f0f;
      }
    </style>
  </defs>
  <path class="cls-1" d="M646.07,595.57c-59.05-.85-92.57-57.36-72.48-111.48,13.09-39.98,56.59-63.21,96.53-48.26,24.59,8.16,46.56,26.9,54.58,50.9,19.04,50.79-24.39,109.8-77.99,108.84h-.64ZM391.94,937.15c122.33-.41,228.63-23.64,341.92-75.61,69.31-31.09,142.88-74.78,191.24-131.31,42.51-49.42,63.64-122.08,68.15-197.19.91-65.14-25.91-130.44-60.59-183.77-43.19-65.48-106.88-115.82-186.52-137.25-45.89-12.35-105.52-27.57-111.7-1.34-3.71,15.74,33.73,67.53,56.11,95.07s58.42,45.44,83.97,71.25c55.72,54.22,88.95,154.89,39.36,225.41-29.9,41.03-92.47,81.55-168.14,111.95-37.83,15.2-76.27-47.5-118.21-38.56-41.94,8.95-87.37,89.55-128.51,89.84-74.81.53-144.27-15.22-193.67-54.46-65.84-56.83-39.18-119.24-2.15-188.63,33.37-63.32,71-119.97,115.2-179.78,22.17-33.46,54.1-59.66,71.58-96.11,18.31-36.98-6.57-172.74-48.27-183.15-38.28-10.24-57.41,96.42-89.15,132.89-43.74,50.26-81.45,99.46-115.73,153.49-31.41,47.66-63.36,95.7-89.8,147.54C1.44,578.69-7.96,673.43,31.73,758.64c57.96,126.12,226.83,178.3,359.56,178.52h.65ZM375.3,638.9c53.6.96,97.03-58.05,77.99-108.84-8.02-24-29.99-42.75-54.58-50.9-39.94-14.94-83.45,8.28-96.53,48.26-20.09,54.12,13.43,110.62,72.48,111.48h.64Z"/>
</svg>