<?xml version="1.0" encoding="UTF-8"?>
<svg id="_图层_1" data-name="图层 1" xmlns="http://www.w3.org/2000/svg" xmlns:xlink="http://www.w3.org/1999/xlink" viewBox="0 0 1750 1000">
  <defs>
    <style>
      .cls-1 {
        fill: url(#_未命名的渐变_319);
      }
    </style>
    <linearGradient id="_未命名的渐变_319" data-name="未命名的渐变 319" x1="20.05" y1="500" x2="1729.95" y2="500" gradientUnits="userSpaceOnUse">
      <stop offset="0" stop-color="#00c897"/>
      <stop offset=".23" stop-color="#cca0c6"/>
      <stop offset=".31" stop-color="#c29ec5"/>
      <stop offset=".44" stop-color="#a999c5"/>
      <stop offset=".61" stop-color="#7f91c4"/>
      <stop offset=".8" stop-color="#4687c3"/>
      <stop offset="1" stop-color="#047bc2"/>
    </linearGradient>
  </defs>
  <path class="cls-1" d="M887.84,530.05c-20.71-.3-32.47-20.12-25.42-39.1,4.59-14.02,19.85-22.17,33.86-16.93,8.62,2.86,16.33,9.44,19.14,17.85,6.68,17.81-8.55,38.51-27.35,38.17h-.22ZM1085,761.64c9.53,2.02,17.32-41.8,22.66-64.34,2.28-9.61,6.28-44.84,8.07-52.35,1.36-6.15,8.27-7.94,13.56-9.56,24.98-7.47,49.35-19.51,71.91-33.3,21.97-12.91,42.9-27.18,61.29-45.73,10.64-10.31,20.85-21.18,28.29-34.49,5.94-10.41,9.77-20.1,11.8-29.13,2.2-9.8-16.96-18.18-18.64-26.5-2.31-11.45,11.3-22.23,3.34-31.26-13.62-15.47-34.09-27.72-56.5-37.84-19.27-8.98-40.74-16.3-56.52-20.54-12.16-1.81-22.51-5.56-40.82-1.02-15.23,3.78-8.79,18.7-15.7,25.58-11.42,11.37-30.4,15.2-30.86,16.8-2.6,9.2-5.01,28.19-6.16,40.74-2.69,31-3.25,61.25-6.2,94.78-.8,8.64-1.6,34.6-5.74,37.67-1.89,1.4-46.52,7.3-49.27,16-5.94,17.22,20.78,31.88,38.98,38.31,2.87,1.31,3.57,3.83,3.15,6.65-.47,3.71-1.13,7.67-1.4,11.39-1.48,20.61-5.36,33.18-4.18,56.82,0,0,7.95,36.87,28.93,41.33ZM1126.3,534.25c.59-5.29,5.4-106.1,17.67-106.71,25.91-1.27,54.17,11.39,71.05,19.71,10.9,5.75,37.07,20.67,32.88,35.94-5.44,20.99-23,35.79-38.63,49.7-7.09,6.29-14.24,12.63-21.79,17.67-9.95,6.5-20.85,12.21-31.21,17.76-7.27,3.81-14.78,7.53-22.55,10.81-5.38,2.05-12.26,6.52-10.83-3.12,1.41-14.23,2.3-27.76,3.38-41.54l.02-.22ZM1355.31,629.52c13.21,11.4,46.94-16.15,49.67-21.63,5.53-11.22,6.28-21.95,7.25-33.93.61-11.03,29.21-15.96,30.61-26.89,1.79-15.68-18.13-40.4-14.17-55.22,2.82-10.88,5.22-22.39,7.49-33.21.85-4.23,1.44-8.33,1.49-12.91.52-17.62-17.5-51.3-35.97-52.83-18.12-1.76-21.75,29.9-25.76,45.66-2.37,8.55-17.78,16.57-19.76,25.06-1.59,6.97,11.26,15.17,9.67,24-4.51,25.11-8.74,55.86-11.36,81.55-.41,4.05-9.56,51.39.84,60.35ZM1454.1,363.86c13.66,4.93,26.91-2.33,27.86-14.62,1.18-14.58-1.86-27.65-6.01-41.2-3.5-10.03-21.85-47.07-61.59-41.7-14.82,2.01-10.77,27.73-7.38,36.45,11.66,29.93,33.67,56.21,47.12,61.06ZM798.72,649.85c42.9-.14,80.18-8.29,119.91-26.52,24.31-10.9,50.11-26.23,67.07-46.05,14.91-17.33,22.32-42.81,23.9-69.15.32-22.85-9.09-45.75-21.25-64.45-15.15-22.96-37.48-40.62-65.41-48.13-16.09-4.33-37.01-9.67-39.17-.47-1.3,5.52,11.83,23.68,19.68,33.34s20.49,15.94,29.45,24.99c19.54,19.02,31.2,54.32,13.8,79.05-10.49,14.39-32.43,28.6-58.97,39.26-13.27,5.33-26.75-16.66-41.46-13.52-14.71,3.14-30.64,31.4-45.07,31.51-26.24.19-50.6-5.34-67.92-19.1-23.09-19.93-13.74-41.82-.75-66.15,11.7-22.21,24.9-42.08,40.4-63.05,7.77-11.73,18.97-20.92,25.1-33.71,6.42-12.97-2.31-60.58-16.93-64.23-13.43-3.59-20.13,33.82-31.26,46.6-15.34,17.63-28.57,34.88-40.59,53.83-11.02,16.72-22.22,33.56-31.5,51.74-15.99,28.49-19.29,61.72-5.37,91.6,20.33,44.23,79.55,62.53,126.1,62.61h.23ZM239.53,699.2c49.25-.01,92.21-14.73,127.67-43.76l.12-.1c56.18-42.84,55.54-127.86,31.15-188.77-7.8-20.06-41.33-13.36-52.73-30.95-8.11-12.51,6.41-49.86-2.16-61.35l-.13-.18c-6.86-10.18-15.96-22.04-25.6-34.6-36.65-47.77-82.25-107.22-72.13-156.89,4.28-20.99,18.39-38.38,41.9-51.66,16.72-9.57,33.65-14.63,48.97-14.63,16.83,0,31.31,5.93,43.02,17.61,11.27,11.09,15.06,25.4,18.52,41.59,1.77,7.09,2.47,14.69,3.15,22.04,1.46,15.78,2.84,30.69,13.93,40.04,1.04.85,2.1,1.75,3.2,2.68,5.76,4.87,12.93,10.92,18.8,10.92.66,0,1.31-.08,1.93-.23,5.23-1.29,11.96-10.89,15.98-16.63.98-1.4,1.89-2.69,2.71-3.8l.08-.11c9.03-11.47,8.24-28.66,5.99-41.08-1.55-8.74-3.55-17.2-5.48-25.38-.52-2.21-1.04-4.42-1.55-6.6l-.82-3.43c-2.76-11.58-5.37-22.51-9.97-33.37-6.54-16.52-20.04-31.36-38.01-41.78l-.21-.13c-22.09-14.45-46.69-21.78-73.11-21.78-30.41,0-62.47,9.9-92.7,28.63-45.78,28.31-67.87,65.15-67.55,112.64.27,39.09,14.33,79.28,43.05,122.92,9.98,15.8,20.75,32.46,32.94,47.17,10.57,12.94,21.88,27.6,31.87,41.3,13.37,17.17,27.45,35.86,39.84,58.8,24.11,45.89,29.22,82.76,15.65,112.73l-.1.2c-13.96,27.17-45.79,39.15-58.92,43.07-17.18,4.71-35.84,7.1-55.46,7.1-48.87,0-98.52-14.73-136.37-27.58-2.5-.88-4.95-1.84-7.32-2.77-6.6-2.59-12.84-5.04-19.66-5.52-4.16-.39-10.45-.91-16.94-.91-15.32,0-20.35,2.89-21.99,4.61-.79.83-1.1,1.71-1.04,3.01.21,6.24,11.4,19.52,33.27,39.47l1.83,1.67c19.19,18.25,49.63,29.16,74,36.62l.17.06c34.81,12.19,73.85,18.99,109.89,19.14h.31ZM553.98,657.92c19.9.69,87.64-4.11,86.1-25.06-1.86-14.96-52.52-30.1-66.12-29.72-6.34.18-21.55-.6-24.91-5.06-8.74-11.6-4.08-46.7-3.19-62.26,1.01-17.15,3.13-35.6,5.94-53.44,2.16-14.01,3.78-28.53,6.5-42.43,1.47-9.56,8.61-10.93,16.78-12.97,5.37-1.4,11.5-2.92,17.07-4.31,22.24-6.13,44.47-9.66,65.71-20.06,10.47-5.09,40.7-16.52,39.65-29.43-.73-9.79-27.14-15.58-36.12-18.68-14.17-4.78-29.63-.1-43.6,2.41-13.18,2.57-27.81,5.49-40.44,7.96-1.73.33-4.37.96-5.67.34-3.1-1.34-.31-9.71-.36-12.66,2.01-16.43,2.1-31.96,3.6-48.14.67-7.42,1.8-14.57.29-22.06-1.36-7.84-7.27-16.13-14.58-19.16-9.42-4.4-21.92-2.04-29.05,5.57-6.76,6.93-8.73,17.11-9.65,26.44-1.62,15.27-2.01,30.74-3.14,45.96-.83,8.33-2.88,16.6-4.3,24.88-.94,4.18-1.53,9.7-5.26,11.85-5.63,2.53-11.81,2.61-18.1,3.28-13.82,1.27-27.43.18-40.2,6.12-12.94,6.15-45.07,21.75-39.73,35.19,6.17,15.73,48.41,22.99,64.19,22,5.35-.14,10.87-.59,16.19-.86,3.54-.13,7.57-.96,9.04.76,1.18,1.45.9,3.18.82,5.13-.35,4.09-.67,8.24-1.19,12.36-.9,7.34-2.19,14.76-3.23,22.02-3.78,31.05-12.36,78.07-6.01,115.43,1.57,9.23,4.05,17.87,7.75,25.54,4.61,9.57,11.12,17.62,20.09,23.39,8.97,5.77,20.41,9.26,34.91,9.71h.23ZM1377.14,917.72c158.25,60.29,258.51,12.8,307.71-136.69,33.06-100.45,46.25-237.3,45.02-299.62-.83-41.64-18.1-65.9-29.33-73.98-33.06-23.76-87.79-8.44-109.16-.87-38.61,15.28-80.08,53.65-99.08,98.72-6.33,15.02,11.91,30.58,11.51,46.48.39,15.89-18.21,29.22-12.3,39.97,14.66,26.66,44.25,38.66,78.59,41.8,41.64,3.81,72.17-20.22,74.51-21.86,2.96-2.09,9.42-6.01,14.18-2.93,3.91,2.52,3.74,14.3,1.77,23.41-9.31,43.16-51,186.99-153.72,213.2-25.75,6.57-57.22,5.51-87.74,2.12-45.03-5-155.26-55.52-159.58-41.96-5.13,16.08,24.16,76.61,117.62,112.21ZM1675.64,457.46c3.18,14.84.32,38.75-9.14,59.97-11.16,25.04-27.75,42.01-49.67,53.48-14.51,7.6-26.85,11.38-46.76,11.38-10.97,0-24.74-4.12-30.17-10.74-26.11-31.85,5.65-72.99,23.52-90.6,11.44-11.71,40.69-34.76,69.93-38.57,4.09-.53,38.15-4.24,42.28,15.08ZM792.88,545.25c18.8.34,34.03-20.36,27.35-38.17-2.81-8.42-10.52-14.99-19.14-17.85-14.01-5.24-29.27,2.91-33.86,16.93-7.05,18.98,4.71,38.8,25.42,39.1h.22Z"/>
</svg>